<svg width="1392" height="1392" viewBox="0 0 1392 1392" fill="none" xmlns="http://www.w3.org/2000/svg">
<circle cx="696" cy="696" r="696" fill="#9287FF"/>
<mask id="mask0" mask-type="alpha" maskUnits="userSpaceOnUse" x="0" y="0" width="1392" height="1392">
<circle cx="696" cy="696" r="696" fill="#FFEDEF"/>
</mask>
<g mask="url(#mask0)">
<g clip-path="url(#clip0)">
<path d="M893.811 1327.9C841.061 1254.63 799.79 1112.99 794.906 1042.17L543.979 934.106L439.579 1327.9H893.811Z" fill="#F9C9B6" stroke="black" stroke-width="14.6526"/>
<mask id="mask1" mask-type="alpha" maskUnits="userSpaceOnUse" x="439" y="934" width="455" height="431">
<path d="M893.811 1364.53C841.061 1291.27 799.79 1112.99 794.906 1042.17L543.979 934.106L439.579 1364.53H893.811Z" fill="#AC6651"/>
</mask>
<g mask="url(#mask1)">
<g style="mix-blend-mode:multiply">
<ellipse cx="783.916" cy="926.78" rx="216.126" ry="197.811" fill="black"/>
</g>
</g>
<mask id="path-6-inside-1" fill="white">
<path fill-rule="evenodd" clip-rule="evenodd" d="M1003.29 710.354C1003.19 709.929 1003.09 709.504 1002.99 709.079C1002.89 708.654 1002.78 708.229 1002.68 707.805L942.621 457.13C942.561 456.876 942.501 456.622 942.44 456.368C942.379 456.113 942.317 455.859 942.256 455.605L941.994 454.511L941.989 454.512C904.558 302.694 751.524 209.343 599.231 245.831C446.938 282.319 352.823 434.884 388.256 587.182L388.249 587.183L450.49 846.967L450.541 846.955C489.381 996.795 641.282 1088.51 792.453 1052.29C943.623 1016.07 1037.47 865.477 1004.19 714.305L1004.24 714.294L1003.29 710.354Z"/>
</mask>
<path fill-rule="evenodd" clip-rule="evenodd" d="M1003.29 710.354C1003.19 709.929 1003.09 709.504 1002.99 709.079C1002.89 708.654 1002.78 708.229 1002.68 707.805L942.621 457.13C942.561 456.876 942.501 456.622 942.44 456.368C942.379 456.113 942.317 455.859 942.256 455.605L941.994 454.511L941.989 454.512C904.558 302.694 751.524 209.343 599.231 245.831C446.938 282.319 352.823 434.884 388.256 587.182L388.249 587.183L450.49 846.967L450.541 846.955C489.381 996.795 641.282 1088.51 792.453 1052.29C943.623 1016.07 1037.47 865.477 1004.19 714.305L1004.24 714.294L1003.29 710.354Z" fill="#F9C9B6"/>
<path d="M1003.29 710.354L989.027 713.704L989.034 713.736L989.042 713.768L1003.29 710.354ZM1002.99 709.079L988.74 712.492L988.74 712.493L1002.99 709.079ZM1002.68 707.805L988.432 711.219L988.439 711.251L988.447 711.284L1002.68 707.805ZM942.621 457.13L928.363 460.505L928.367 460.525L928.372 460.544L942.621 457.13ZM942.44 456.368L928.19 459.781L928.19 459.781L942.44 456.368ZM942.256 455.605L928.006 459.019L928.011 459.038L928.016 459.058L942.256 455.605ZM941.994 454.511L956.243 451.097L952.825 436.829L938.561 440.266L941.994 454.511ZM941.989 454.512L927.762 458.02L931.251 472.171L945.421 468.757L941.989 454.512ZM599.231 245.831L602.645 260.081V260.081L599.231 245.831ZM388.256 587.182L391.688 601.427L405.822 598.022L402.527 583.861L388.256 587.182ZM388.249 587.183L384.817 572.938L370.59 576.366L373.999 590.597L388.249 587.183ZM450.49 846.967L436.241 850.381L439.654 864.627L453.901 861.217L450.49 846.967ZM450.541 846.955L464.725 843.278L461.117 829.357L447.131 832.704L450.541 846.955ZM1004.19 714.305L1000.78 700.056L986.788 703.407L989.88 717.455L1004.19 714.305ZM1004.24 714.294L1007.65 728.544L1021.9 725.13L1018.48 710.88L1004.24 714.294ZM1017.56 707.004C1017.45 706.557 1017.35 706.111 1017.24 705.665L988.74 712.493C988.836 712.897 988.932 713.3 989.027 713.704L1017.56 707.004ZM1017.24 705.665C1017.13 705.219 1017.02 704.773 1016.91 704.327L988.447 711.284C988.545 711.686 988.643 712.089 988.74 712.492L1017.24 705.665ZM928.372 460.544L988.432 711.219L1016.93 704.391L956.871 453.716L928.372 460.544ZM956.88 453.755C956.817 453.488 956.753 453.221 956.689 452.954L928.19 459.781C928.248 460.023 928.305 460.264 928.363 460.505L956.88 453.755ZM956.689 452.954C956.625 452.686 956.56 452.418 956.496 452.152L928.016 459.058C928.075 459.3 928.133 459.541 928.19 459.781L956.689 452.954ZM927.744 457.925L928.006 459.019L956.505 452.191L956.243 451.097L927.744 457.925ZM945.421 468.757L945.426 468.756L938.561 440.266L938.556 440.267L945.421 468.757ZM956.215 451.005C916.858 291.37 755.948 193.216 595.817 231.582L602.645 260.081C747.1 225.47 892.258 314.017 927.762 458.02L956.215 451.005ZM595.817 231.582C435.685 269.948 336.727 430.365 373.984 590.502L402.527 583.861C368.918 439.404 458.19 294.691 602.645 260.081L595.817 231.582ZM391.68 601.428L391.688 601.427L384.824 572.937L384.817 572.938L391.68 601.428ZM464.74 843.553L402.498 583.769L373.999 590.597L436.241 850.381L464.74 843.553ZM447.131 832.704L447.08 832.717L453.901 861.217L453.952 861.205L447.131 832.704ZM436.358 850.631C477.198 1008.19 636.915 1104.62 795.867 1066.54L789.039 1038.04C645.65 1072.39 501.565 985.401 464.725 843.278L436.358 850.631ZM795.867 1066.54C954.819 1028.45 1053.49 870.113 1018.5 711.155L989.88 717.455C1021.45 860.842 932.428 1003.68 789.039 1038.04L795.867 1066.54ZM1000.82 700.045L1000.78 700.056L1007.6 728.555L1007.65 728.544L1000.82 700.045ZM989.042 713.768L989.986 717.708L1018.48 710.88L1017.54 706.94L989.042 713.768Z" fill="black" mask="url(#path-6-inside-1)"/>
</g>
<path d="M657.538 807.727C666.695 870 771.095 899.306 866.338 827.874" stroke="black" stroke-width="14.6526"/>
<path d="M802.653 439.416C823.411 429.648 872.253 420.734 901.558 463.227" stroke="black" stroke-width="14.6526" stroke-linecap="round"/>
<path d="M526.374 532.119C533.959 510.468 561.841 469.387 612.688 478.276" stroke="black" stroke-width="14.6526" stroke-linecap="round"/>
<ellipse cx="617.352" cy="616.888" rx="32.9684" ry="49.4526" transform="rotate(-6.77646 617.352 616.888)" fill="black"/>
<ellipse cx="851.794" cy="580.255" rx="32.9684" ry="49.4526" transform="rotate(-6.27568 851.794 580.255)" fill="black"/>
<circle cx="855.347" cy="582.442" r="95.2421" stroke="black" stroke-width="14.6526"/>
<circle cx="609.915" cy="615.41" r="95.2421" stroke="black" stroke-width="14.6526"/>
<path d="M763.768 608.084C763.768 600.312 760.68 592.858 755.184 587.362C749.689 581.866 742.235 578.779 734.462 578.779C726.69 578.779 719.236 581.866 713.741 587.362C708.245 592.858 705.157 600.312 705.157 608.084" stroke="black" stroke-width="14.6526"/>
<path d="M516.505 622.737L406.61 642.884" stroke="black" stroke-width="14.6526"/>
<path d="M744.446 619.106C751.583 669.891 782.584 706.225 782.584 706.225C782.584 706.225 772.947 729.774 735.652 727.617" stroke="black" stroke-width="14.6526"/>
<path d="M456.064 660.012C447.528 657.202 438.315 655.706 428.883 655.706C390.444 655.706 359.283 679.516 362.946 723.474C366.762 769.264 394.107 785.748 432.546 785.748C436.823 785.748 441.01 785.372 445.074 784.653C449.509 783.868 453.796 782.674 457.895 781.113" stroke="black" stroke-width="29.3053"/>
<path d="M459.727 780.386C451.376 783.838 442.19 785.748 432.546 785.748C394.107 785.748 366.762 769.264 362.946 723.474C359.283 679.516 390.444 655.706 428.883 655.706C440.376 655.706 451.546 657.927 461.558 662.041L459.727 780.386Z" fill="#F9C9B6"/>
<path d="M445.074 686.844C430.421 680.129 398.186 676.588 386.464 716.15" stroke="black" stroke-width="14.6526"/>
<path d="M406.611 688.674C414.548 695.39 429.689 716.148 426.758 745.453" stroke="black" stroke-width="14.6526"/>
<path d="M1185.74 1402.99H184.529C244.238 1295.51 329.163 1227.09 466.849 1195.7C525.508 1182.33 593.844 1175.66 674.02 1175.66C708.658 1175.66 735.612 1180.94 761.19 1187.91C770.665 1190.49 780.189 1193.39 789.932 1196.35C806.059 1201.25 822.786 1206.33 840.886 1210.49L841.399 1210.61L841.924 1210.65C1010.89 1224.59 1112.21 1299.64 1185.74 1402.99Z" fill="#F8BFC5" stroke="black" stroke-width="14.6526"/>
<path d="M424.668 1203.65L458.198 1131.86C458.998 1130.15 460.989 1129.33 462.773 1129.96C601.703 1179.14 728.092 1175.68 845.219 1143.07C846.693 1142.66 848.268 1143.2 849.172 1144.44L900.208 1214.23C901.611 1216.15 900.896 1218.86 898.684 1219.72C775.575 1268.06 544.572 1259.85 426.444 1208.49C424.57 1207.68 423.803 1205.5 424.668 1203.65Z" fill="white" stroke="black" stroke-width="14.6526"/>
</g>
<defs>
<clipPath id="clip0">
<rect width="732.632" height="1172.21" fill="white" transform="translate(329.685 157.517)"/>
</clipPath>
</defs>
</svg>
